<mxfile host="app.diagrams.net" modified="2020-09-17T13:07:35.250Z" agent="5.0 (Windows NT 10.0; Win64; x64) AppleWebKit/537.36 (KHTML, like Gecko) Chrome/85.0.4183.102 Safari/537.36" etag="cUwEJJ5N44ZJvbpzDKv6" version="13.6.9" type="github">
  <diagram id="yJkLG_4N8ahEqLFX6jKG" name="Page-1">
    <mxGraphModel dx="1038" dy="580" grid="1" gridSize="10" guides="1" tooltips="1" connect="1" arrows="1" fold="1" page="1" pageScale="1" pageWidth="850" pageHeight="1100" math="0" shadow="0">
      <root>
        <mxCell id="0" />
        <mxCell id="1" parent="0" />
        <mxCell id="pkTWccRxXyrFnHoL0A1C-3" value="" style="edgeStyle=orthogonalEdgeStyle;rounded=0;orthogonalLoop=1;jettySize=auto;html=1;" edge="1" parent="1" source="pkTWccRxXyrFnHoL0A1C-1" target="pkTWccRxXyrFnHoL0A1C-25">
          <mxGeometry relative="1" as="geometry">
            <mxPoint x="70" y="150" as="targetPoint" />
          </mxGeometry>
        </mxCell>
        <mxCell id="pkTWccRxXyrFnHoL0A1C-1" value="Start" style="ellipse;whiteSpace=wrap;html=1;" vertex="1" parent="1">
          <mxGeometry x="10" y="10" width="120" height="80" as="geometry" />
        </mxCell>
        <mxCell id="pkTWccRxXyrFnHoL0A1C-5" value="" style="edgeStyle=orthogonalEdgeStyle;rounded=0;orthogonalLoop=1;jettySize=auto;html=1;" edge="1" parent="1" source="pkTWccRxXyrFnHoL0A1C-2" target="pkTWccRxXyrFnHoL0A1C-27">
          <mxGeometry relative="1" as="geometry">
            <mxPoint x="70" y="330" as="targetPoint" />
            <Array as="points">
              <mxPoint x="70" y="310" />
              <mxPoint x="70" y="310" />
            </Array>
          </mxGeometry>
        </mxCell>
        <mxCell id="pkTWccRxXyrFnHoL0A1C-2" value="Enter starting &lt;br&gt;balance" style="shape=parallelogram;perimeter=parallelogramPerimeter;whiteSpace=wrap;html=1;fixedSize=1;" vertex="1" parent="1">
          <mxGeometry x="10" y="230" width="120" height="60" as="geometry" />
        </mxCell>
        <mxCell id="pkTWccRxXyrFnHoL0A1C-7" value="" style="edgeStyle=orthogonalEdgeStyle;rounded=0;orthogonalLoop=1;jettySize=auto;html=1;" edge="1" parent="1" source="pkTWccRxXyrFnHoL0A1C-4" target="pkTWccRxXyrFnHoL0A1C-31">
          <mxGeometry relative="1" as="geometry">
            <mxPoint x="70" y="530" as="targetPoint" />
          </mxGeometry>
        </mxCell>
        <mxCell id="pkTWccRxXyrFnHoL0A1C-4" value="Enter yearly&lt;br&gt;contribution" style="shape=parallelogram;perimeter=parallelogramPerimeter;whiteSpace=wrap;html=1;fixedSize=1;" vertex="1" parent="1">
          <mxGeometry x="10" y="430" width="120" height="60" as="geometry" />
        </mxCell>
        <mxCell id="pkTWccRxXyrFnHoL0A1C-9" value="" style="edgeStyle=orthogonalEdgeStyle;rounded=0;orthogonalLoop=1;jettySize=auto;html=1;" edge="1" parent="1" source="pkTWccRxXyrFnHoL0A1C-6" target="pkTWccRxXyrFnHoL0A1C-8">
          <mxGeometry relative="1" as="geometry" />
        </mxCell>
        <mxCell id="pkTWccRxXyrFnHoL0A1C-6" value="Enter ROI as %" style="shape=parallelogram;perimeter=parallelogramPerimeter;whiteSpace=wrap;html=1;fixedSize=1;" vertex="1" parent="1">
          <mxGeometry x="10" y="630" width="120" height="60" as="geometry" />
        </mxCell>
        <mxCell id="pkTWccRxXyrFnHoL0A1C-12" value="" style="edgeStyle=orthogonalEdgeStyle;rounded=0;orthogonalLoop=1;jettySize=auto;html=1;" edge="1" parent="1" source="pkTWccRxXyrFnHoL0A1C-8">
          <mxGeometry relative="1" as="geometry">
            <mxPoint x="70" y="830" as="targetPoint" />
          </mxGeometry>
        </mxCell>
        <mxCell id="pkTWccRxXyrFnHoL0A1C-8" value="Display Enter # &lt;br&gt;of Years" style="shape=parallelogram;perimeter=parallelogramPerimeter;whiteSpace=wrap;html=1;fixedSize=1;" vertex="1" parent="1">
          <mxGeometry x="10" y="730" width="120" height="60" as="geometry" />
        </mxCell>
        <mxCell id="pkTWccRxXyrFnHoL0A1C-19" value="" style="edgeStyle=orthogonalEdgeStyle;rounded=0;orthogonalLoop=1;jettySize=auto;html=1;" edge="1" parent="1" source="pkTWccRxXyrFnHoL0A1C-11" target="pkTWccRxXyrFnHoL0A1C-18">
          <mxGeometry relative="1" as="geometry" />
        </mxCell>
        <mxCell id="pkTWccRxXyrFnHoL0A1C-11" value="Do Math,&lt;br&gt;&lt;u&gt;Print&lt;/u&gt;&amp;nbsp;Bal" style="shape=process;whiteSpace=wrap;html=1;backgroundOutline=1;" vertex="1" parent="1">
          <mxGeometry x="10" y="930" width="120" height="60" as="geometry" />
        </mxCell>
        <mxCell id="pkTWccRxXyrFnHoL0A1C-15" value="" style="edgeStyle=orthogonalEdgeStyle;rounded=0;orthogonalLoop=1;jettySize=auto;html=1;" edge="1" parent="1" source="pkTWccRxXyrFnHoL0A1C-13" target="pkTWccRxXyrFnHoL0A1C-14">
          <mxGeometry relative="1" as="geometry" />
        </mxCell>
        <mxCell id="pkTWccRxXyrFnHoL0A1C-13" value="Do Math" style="ellipse;whiteSpace=wrap;html=1;" vertex="1" parent="1">
          <mxGeometry x="190" y="10" width="120" height="80" as="geometry" />
        </mxCell>
        <mxCell id="pkTWccRxXyrFnHoL0A1C-36" value="" style="edgeStyle=orthogonalEdgeStyle;rounded=0;orthogonalLoop=1;jettySize=auto;html=1;" edge="1" parent="1" source="pkTWccRxXyrFnHoL0A1C-14" target="pkTWccRxXyrFnHoL0A1C-35">
          <mxGeometry relative="1" as="geometry" />
        </mxCell>
        <mxCell id="pkTWccRxXyrFnHoL0A1C-14" value="(Bal+YC)x(1+.05)&lt;br&gt;&lt;u&gt;Print&lt;/u&gt; Bal" style="whiteSpace=wrap;html=1;" vertex="1" parent="1">
          <mxGeometry x="350" y="5" width="120" height="90" as="geometry" />
        </mxCell>
        <mxCell id="pkTWccRxXyrFnHoL0A1C-18" value="End" style="whiteSpace=wrap;html=1;" vertex="1" parent="1">
          <mxGeometry x="10" y="1030" width="120" height="60" as="geometry" />
        </mxCell>
        <mxCell id="pkTWccRxXyrFnHoL0A1C-26" value="" style="edgeStyle=orthogonalEdgeStyle;rounded=0;orthogonalLoop=1;jettySize=auto;html=1;" edge="1" parent="1" source="pkTWccRxXyrFnHoL0A1C-25" target="pkTWccRxXyrFnHoL0A1C-2">
          <mxGeometry relative="1" as="geometry" />
        </mxCell>
        <mxCell id="pkTWccRxXyrFnHoL0A1C-25" value="Display&lt;br&gt;Enter Starting Balance" style="shape=parallelogram;perimeter=parallelogramPerimeter;whiteSpace=wrap;html=1;fixedSize=1;" vertex="1" parent="1">
          <mxGeometry x="10" y="130" width="120" height="60" as="geometry" />
        </mxCell>
        <mxCell id="pkTWccRxXyrFnHoL0A1C-29" value="" style="edgeStyle=orthogonalEdgeStyle;rounded=0;orthogonalLoop=1;jettySize=auto;html=1;" edge="1" parent="1" source="pkTWccRxXyrFnHoL0A1C-27" target="pkTWccRxXyrFnHoL0A1C-4">
          <mxGeometry relative="1" as="geometry" />
        </mxCell>
        <mxCell id="pkTWccRxXyrFnHoL0A1C-27" value="Display&amp;nbsp;&lt;br&gt;Enter Yearly&amp;nbsp;&lt;br&gt;Contribution" style="shape=parallelogram;perimeter=parallelogramPerimeter;whiteSpace=wrap;html=1;fixedSize=1;" vertex="1" parent="1">
          <mxGeometry x="10" y="330" width="120" height="60" as="geometry" />
        </mxCell>
        <mxCell id="pkTWccRxXyrFnHoL0A1C-32" value="" style="edgeStyle=orthogonalEdgeStyle;rounded=0;orthogonalLoop=1;jettySize=auto;html=1;" edge="1" parent="1" source="pkTWccRxXyrFnHoL0A1C-31" target="pkTWccRxXyrFnHoL0A1C-6">
          <mxGeometry relative="1" as="geometry" />
        </mxCell>
        <mxCell id="pkTWccRxXyrFnHoL0A1C-31" value="Display Enter&lt;br&gt;ROI as %" style="shape=parallelogram;perimeter=parallelogramPerimeter;whiteSpace=wrap;html=1;fixedSize=1;" vertex="1" parent="1">
          <mxGeometry x="10" y="530" width="120" height="60" as="geometry" />
        </mxCell>
        <mxCell id="pkTWccRxXyrFnHoL0A1C-34" value="" style="edgeStyle=orthogonalEdgeStyle;rounded=0;orthogonalLoop=1;jettySize=auto;html=1;" edge="1" parent="1" source="pkTWccRxXyrFnHoL0A1C-33" target="pkTWccRxXyrFnHoL0A1C-11">
          <mxGeometry relative="1" as="geometry" />
        </mxCell>
        <mxCell id="pkTWccRxXyrFnHoL0A1C-33" value="Enter # of&lt;br&gt;Years" style="shape=parallelogram;perimeter=parallelogramPerimeter;whiteSpace=wrap;html=1;fixedSize=1;" vertex="1" parent="1">
          <mxGeometry x="10" y="830" width="120" height="60" as="geometry" />
        </mxCell>
        <mxCell id="pkTWccRxXyrFnHoL0A1C-38" value="" style="edgeStyle=orthogonalEdgeStyle;rounded=0;orthogonalLoop=1;jettySize=auto;html=1;" edge="1" parent="1" source="pkTWccRxXyrFnHoL0A1C-35" target="pkTWccRxXyrFnHoL0A1C-37">
          <mxGeometry relative="1" as="geometry" />
        </mxCell>
        <mxCell id="pkTWccRxXyrFnHoL0A1C-45" value="" style="edgeStyle=orthogonalEdgeStyle;rounded=0;orthogonalLoop=1;jettySize=auto;html=1;" edge="1" parent="1" source="pkTWccRxXyrFnHoL0A1C-35" target="pkTWccRxXyrFnHoL0A1C-44">
          <mxGeometry relative="1" as="geometry" />
        </mxCell>
        <mxCell id="pkTWccRxXyrFnHoL0A1C-35" value="Have we done this yrs times?" style="rhombus;whiteSpace=wrap;html=1;" vertex="1" parent="1">
          <mxGeometry x="510" width="100" height="100" as="geometry" />
        </mxCell>
        <mxCell id="pkTWccRxXyrFnHoL0A1C-43" value="" style="edgeStyle=orthogonalEdgeStyle;rounded=0;orthogonalLoop=1;jettySize=auto;html=1;entryX=0.5;entryY=1;entryDx=0;entryDy=0;" edge="1" parent="1" source="pkTWccRxXyrFnHoL0A1C-37" target="pkTWccRxXyrFnHoL0A1C-14">
          <mxGeometry relative="1" as="geometry">
            <mxPoint x="410" y="180" as="targetPoint" />
            <Array as="points">
              <mxPoint x="410" y="180" />
            </Array>
          </mxGeometry>
        </mxCell>
        <mxCell id="pkTWccRxXyrFnHoL0A1C-37" value="No" style="rhombus;whiteSpace=wrap;html=1;" vertex="1" parent="1">
          <mxGeometry x="520" y="140" width="80" height="80" as="geometry" />
        </mxCell>
        <mxCell id="pkTWccRxXyrFnHoL0A1C-47" value="" style="edgeStyle=orthogonalEdgeStyle;rounded=0;orthogonalLoop=1;jettySize=auto;html=1;" edge="1" parent="1" source="pkTWccRxXyrFnHoL0A1C-44" target="pkTWccRxXyrFnHoL0A1C-46">
          <mxGeometry relative="1" as="geometry" />
        </mxCell>
        <mxCell id="pkTWccRxXyrFnHoL0A1C-44" value="Yes" style="rhombus;whiteSpace=wrap;html=1;" vertex="1" parent="1">
          <mxGeometry x="650" y="10" width="80" height="80" as="geometry" />
        </mxCell>
        <mxCell id="pkTWccRxXyrFnHoL0A1C-46" value="End" style="whiteSpace=wrap;html=1;" vertex="1" parent="1">
          <mxGeometry x="630" y="130" width="120" height="60" as="geometry" />
        </mxCell>
      </root>
    </mxGraphModel>
  </diagram>
</mxfile>
